<svg width="127" height="24" viewBox="0 0 127 24" fill="none" xmlns="http://www.w3.org/2000/svg">
<path d="M49.841 0.46447L40.0982 23.5165H34.7301L24.9301 0.46447H30.5274L37.4046 17.349L44.2628 0.46447H49.841Z" fill="white"/>
<path d="M56.6801 0.46447V4.84264H51.6367V0.46447H56.6801ZM56.6801 6.25127V23.4975H51.6367V6.25127H56.6801Z" fill="white"/>
<path d="M66.0599 10.3058C65.4295 10.3058 65.0092 10.7246 65.0092 11.3528V11.9239C65.0092 12.552 65.4295 13.0089 66.0599 13.0089H72.8607C75.2486 13.0089 77.2354 14.9695 77.2354 17.368V19.1383C77.2354 21.5178 75.2677 23.4975 72.8607 23.4975H64.5316C62.1437 23.4975 60.1187 21.5368 60.1187 19.1383V18.1294H65.1047V18.415C65.1047 19.0432 65.5441 19.4619 66.1554 19.4619H71.1987C71.81 19.4619 72.2494 19.0432 72.2494 18.415V17.8439C72.2494 17.2157 71.81 16.797 71.1987 16.797H64.3979C61.9717 16.797 60.0232 14.7602 60.0232 12.3426V10.6294C60.0232 8.25 61.9717 6.27031 64.3979 6.27031H72.4213C74.8093 6.27031 76.8342 8.23097 76.8342 10.6294V11.6383H71.8482V11.3528C71.8482 10.7246 71.4279 10.3058 70.7975 10.3058H66.0599Z" fill="white"/>
<path d="M85.3544 0.46447V4.84264H80.3111V0.46447H85.3544ZM85.3544 6.25127V23.4975H80.3111V6.25127H85.3544Z" fill="white"/>
<path d="M106.292 10.6294V19.1574C106.292 21.4797 104.381 23.5165 101.917 23.5165H93.034C90.7416 23.5165 88.6593 21.5749 88.6593 19.1574V10.6294C88.6593 8.34517 90.6078 6.2703 93.034 6.2703H101.917C104.248 6.25127 106.292 8.21193 106.292 10.6294ZM101.134 11.8287C101.134 11.1244 100.561 10.5914 99.8921 10.5914H95.0972C94.4285 10.5914 93.8554 11.1244 93.8554 11.8287V17.9391C93.8554 18.6434 94.4285 19.1764 95.0972 19.1764H99.8921C100.561 19.1764 101.134 18.6434 101.134 17.9391V11.8287Z" fill="white"/>
<path d="M114.755 23.5165H109.616V6.25127H114.755V8.95432L117.869 6.25127H122.606C124.937 6.25127 126.981 8.1929 126.981 10.6104V23.4975H121.804V11.8287C121.804 11.1244 121.269 10.5914 120.562 10.5914H115.996C115.328 10.5914 114.755 11.1244 114.755 11.8287V23.5165Z" fill="white"/>
<path d="M0.0191035 0.46447H12.9713C15.2828 0.46447 16.9639 0.997465 18.0146 2.04442C19.0653 3.09137 19.6002 4.7665 19.6002 7.0698V10.0393C19.6002 11.8668 19.2945 13.2754 18.6832 14.3033C18.0719 15.3122 17.0976 15.9784 15.7795 16.3211L19.9058 23.5546H14.0984L10.5642 17.1015H5.04332V23.5546H0L0.0191035 0.46447ZM14.1175 7.05076C14.1175 5.73731 13.468 5.0901 12.1498 5.0901H5.04332V12.019H12.1307C13.4489 12.019 14.0984 11.3718 14.0984 10.0584V7.05076H14.1175Z" fill="white"/>
<path d="M26.8977 12H21.8544V17.0254H26.8977V12Z" fill="white"/>
</svg>
